<?xml version="1.0" encoding="utf-8"?>

<!DOCTYPE svg PUBLIC "-//W3C//DTD SVG 1.1//EN" "http://www.w3.org/Graphics/SVG/1.1/DTD/svg11.dtd">
<svg version="1.1" id="Layer_1" xmlns="http://www.w3.org/2000/svg" xmlns:xlink="http://www.w3.org/1999/xlink" x="0px" y="0px"
	 viewBox="0 0 1206.12 1695.819">
<g>
	<path fill="#59a3e9" d="M1142.35,1239.616c-2.767-11.852-1.3-24.263-5.484-35.803c-1.825-5.033-1.673-10.174-1.585-15.405
		c0.472-27.809-4.99-28.874-13.497-79.971c-3.67-22.043-5.957-44.287-10.443-66.234c-8.708-42.602-25.544-80.194-30.433-108.975
		c-2.463-14.498-9.863-24.676-21.317-32.401c-14.189-9.569-7.875-9.57-25.488-27.146c-26.819-26.764-6.728-41.766-12.823-58.564
		c-7.752-21.366,7.658-58.181-6.48-86.028c-19.189-37.793-3.956-29.343-40.482-55.627c-3.385-2.436-7.185-5.238-11.758-5.009
		c-18.901,0.946-64.157-20.31-88.174,35.602c-6.26,14.572-11.084,29.641-16.25,44.621c-7.523,21.818-18.052,42.591-25.372,64.565
		c-1.296,3.89-3.378,7.697-6.099,9.737c-48.504,36.372-35.044,50.904-53.901,65.043c-4.807,3.604-7.21,9.399-3.417,17.126
		c10.745,21.887-27.622,67.383-43.485,87.316c-2.098,2.637-4.812,3.732-7.924,1.892c-25.318-14.965-20.314-9.759-21.373-30.087
		c-0.774-14.857-8.001-29.671-0.312-44.613c0.312-0.607-0.176-1.656-0.362-2.484c-5.091-22.639-5.988-46.021-19.366-66.839
		c-14.392-22.396-21.528-48.563-31.304-73.273c-6.288-15.893-14.5-30.999-19.27-47.508c-5.734-19.844-12.69-39.239-23.091-57.179
		c-4.672-8.059-1.4-38.911-13.011-47.482c-8.129-6.001-6.481-18.629-9.548-25.987c-29.278-70.252-19.284-73.794-71.388-209.039
		c-6.599-17.13-15.876-33.019-31.537-43.435c-18.275-12.154-37.034-23.642-57.335-32.309c-9.762-4.167-14.855-12.478-11.506-22.269
		c6.064-17.731-7.182-33.241-5.645-38.432c3.451-11.658,4.536-23.609,5.554-35.66c1.387-16.415,8.833-32.25,4.675-49.223
		c-0.194-0.794,0.016-1.742,0.225-2.571c6.247-24.801,3.537-91.866-43.131-108.099c-1.18-0.411-2.099-1.525-3.207-2.198
		c-27.736-16.849-50.761-1.302-59.135,0.298c-16.572,3.166-25.751,17.346-38.734,25.848c-0.334,0.218-0.577,0.674-0.719,1.071
		c-5.191,14.496-13.552,28.262-12.028,44.416c1.159,12.285-3.587,24.033-2.384,36.237c0.998,10.124-19.757,4.605-2.532,42.276
		c6.803,14.876-8.681,17.756-7.25,34.849c1.147,13.687-5.818,20.112-15.627,28.028c-63.922,51.593-109.362,77.439-127.456,112.259
		c-38.033,73.188-45.24,62.977-30.748,144.45c2.836,15.946,8.62,31.494,1.873,47.891c-2.01,4.885,1.128,37.461-0.889,61.104
		c-3.104,36.401,26.553,73.616,54.341,96.962c24.329,20.44,15.371,53.558,21.166,72.293c0.728,2.355,0.706,5.391-0.116,7.707
		c-10.25,28.88-10.099,87.424-9.845,113.431c0.182,18.604,12.961,9.812,12.979,23.387c0.031,23.219,18.786,36.501,11.876,59.966
		c-2.189,7.433-0.673,13.784,2.296,20.024c7.684,16.15,10.392,33.674,14.56,50.783c9.505,39.018-11.523,97.152-6.213,124.699
		c8.245,42.771,1.244,52.208-3.586,83.207c-3.147,20.203-4.671,40.563-8.497,60.813c-9.65,51.077,5.51,60.379-1.566,79.89
		c-5.165,14.244,6.329,24.826,0.541,46.13c-4.539,16.706,4.53,44.275,4.236,62.926c-0.332,21.069,10.967,34.331,0.665,50.144
		c-15.61,23.959-7.821,44.115-8.945,49.088c3.327,0.458,3.786,1.24,29.328,9.671c0.001,0,323.716,0.213,323.716,0.213
		c3.266-1.889,7.025-3.094,10.806-3.57c-0.004,0.001-1.205,0.151-1.201,0.148c-5.185,0.626,0.592-0.11,2.291-1.179
		c1.875-2.103,2.655-1.058,6.304-8.686c-2.966-8.894,2.96-13.647-13.695-29.238c-18.254-17.089-15.522-32.88-32.785-38.22
		c-8.726-2.699-26.032-29.784-31.207-39.123c-7.226-13.041-4.442-19.55,1.368-52.938c7.838-45.043,7.576-78.239,7.576-78.239
		c6.857-10.211,4.253-21.696,4.732-32.758c1.026-23.692-21.098-20.002-7.121-34.821c4.868-5.161,8.725-10.644,9.657-17.608
		c10.063-75.184,7.548-78.311,15.921-102.658c22.267-64.748,14.198-78.077,28.175-114.533c10.851-28.303,6.432-42.039,11.664-71.005
		c6.194-34.289-9.109-71.948,2.524-77.279c8.452-3.874,8.21-11.24,6.506-17.721c-3.697-14.064-0.476-30.871-3.862-49.095
		c-3.222-17.342,2.784-34.42,2.194-51.762c-0.116-3.406,2.614-7.055,6.126-7.692c3.909-0.709,5.317,3.167,7.279,6.091
		c4.697,7,45.241,63.13,55.303,85.748c5.36,12.047,11.276,24.322,19.971,34.676c13.738,16.359,1.872,25.275,11.958,28.601
		c7.953,2.623,8.786,8.502,8.338,15.49c-4.139,64.617,13.509,41.249,55.318,88.629c12.029,13.632,26.674,10.386,40.826,10.916
		c53.181,1.992,55.727-39.956,67.93-19.246c3.492,5.927,4.241,13.22,9.044,18.457c3.481,3.796,4.189,8.272,4.376,13.184
		c1.03,27.047-13.375,30.799-17.914,58.595c-3.337,20.436-6.571,41.153-5.808,61.978c0.768,20.981-7.2,46.949-8.172,95.232
		c-0.628,31.202,24.549,19.836,23.701,42.048c-0.547,14.298,1.551,54.392-3.349,71.333c-5.679,19.635-2.895,28.588-6.005,40.662
		c-10.649,41.324-12.196,83.412-7.771,114.332c3.981,27.818,3.58,5.285-0.263,53.526c-1.61,20.206,35.842,0.958,81.662,9.205
		c15.56,2.798,12.942-21.974,11.926-30.868c-0.736-6.442-0.793-14.284-5.928-18.821c-5.75-5.08-13.142-4.034-12.949-13.894
		c0.161-8.221-1.269-16.328-2.046-24.462c-4.666-48.846,15.455-64.24,18.205-95.35c1.085-12.276,4.25-24.462,7.431-36.438
		c15.569-58.607,18.827-68.22,36.859-65.458c13.198,2.022,12.34,12.654,13.995,30.776c1.572,17.218,5.786,34.469,2.943,51.785
		c-7.3,44.47,12.569,59.385,11.495,103.242c-0.434,17.73-0.286,35.467-0.172,53.2c0.057,8.903-5.011,37.709,3.351,43.118
		c3.728,2.412,8.457,2.453,12.898,2.415c65.921-0.569,63.998-0.131,66.835-1.609c14.07-7.333-12.025-39.808-7.096-59.462
		c5.09-20.295-1.378-40.57,1.459-60.75c0.332-2.364-0.969-5.082-1.908-7.481c-17.045-43.56,2.112-115.8,7.564-154.128
		c0.903-6.35,2.076-12.762,7.606-15.598c6.206-3.182,12.182-11.467,20.791-4.101c1.628,1.393,3.618,0.308,4.552-0.971
		c7.505-10.274,23.501-5.125,32.442-23.949c28.795-60.62-14.921-44.952,29.777-61.274
		C1140.19,1253.682,1144.427,1248.515,1142.35,1239.616z M312.149,1361.668c1.142,15.691,1.035,30.863-4.671,45.611
		c-2.399,6.202-2.315,74.968,2.753,110.137c1.035,7.184,0.573,14.595,0.583,21.902c0.001,1.062-2.334,5.502-4.8,1.146
		c-0.567-1.002-9.009-39.574-7.587-56.287c0-1.3,0.146-2.619-0.022-3.896c-2.727-20.717-0.398-41.642-2.002-62.241
		c-1.029-13.219-2.701-24.811,6.02-36.073c2.723-3.516,1.559-9.22,1.292-14.009c-0.895-16.043-1.024-31.926,4.114-47.578
		c3.162-9.635-1.571-23.602,5.883-23.508c3.536,0.045,5.53,2.681,5.419,6.059C318.096,1334.326,309.147,1320.44,312.149,1361.668z"
		/>
</g>
</svg>
